<svg width="35" height="37" viewBox="0 0 35 37" fill="none" xmlns="http://www.w3.org/2000/svg">
<path d="M18.9117 7.92817C18.9742 7.99706 18.8764 8.03943 18.7526 8.05844C18.7142 8.0645 18.5626 8.01582 18.5292 8.01815C18.4639 8.02277 18.5342 8.06201 18.4576 8.06334C18.4315 8.06358 18.1903 7.9903 18.1685 7.99204C18.0506 8.00203 18.1028 8.05514 18.0407 8.08052C17.7339 8.20542 17.592 8.37074 17.429 8.53649C17.3755 8.5912 17.1337 8.61059 17.2126 8.70287C17.222 8.7137 17.4369 8.76604 17.4541 8.77221C17.7175 8.86727 17.2882 8.74456 17.2269 8.74441C16.9846 8.74413 16.9471 8.80566 17.0142 8.88544C17.0433 8.91955 17.4742 9.00805 17.2295 8.96929C17.2129 8.96672 16.9877 8.89999 16.9617 8.90028C16.9032 8.90106 16.936 8.94088 16.9149 8.94794C16.873 8.96124 16.8743 8.96562 16.8659 8.98654C16.8526 9.0146 16.7304 9.01965 16.7734 9.06505C16.7832 9.07492 17.0182 9.12798 17.0549 9.14932C17.0915 9.17065 17.0642 9.19395 17.0068 9.18896C16.9493 9.18397 16.7677 9.13112 16.7253 9.12166C16.3679 9.04138 16.8489 9.20502 16.8599 9.2125C17.0456 9.34504 16.7489 9.3371 16.7303 9.41007C16.7167 9.46561 16.7931 9.54923 16.7664 9.59842C16.7338 9.65677 16.5936 9.67623 16.5991 9.74283C16.5994 9.74979 16.8748 9.81518 16.8757 9.82383C16.8854 9.91561 16.8335 9.99037 16.6268 10.0241C16.6058 10.0274 16.3686 9.95266 16.3333 9.95215C16.1224 9.95041 15.627 9.90452 16.6642 10.2135C16.6142 10.2371 16.5609 10.2676 16.3419 10.2423C16.201 10.226 15.9446 10.137 16.0497 10.1911C16.0731 10.2033 16.3041 10.2572 16.3218 10.2708C16.3964 10.3279 16.3118 10.346 16.421 10.412C16.4437 10.4256 16.6495 10.4784 16.6859 10.4902C16.9808 10.5867 16.4786 10.4825 16.441 10.479C16.1607 10.4535 16.2572 10.5153 16.2392 10.5564C16.2349 10.5659 16.5138 10.6277 16.5195 10.6395C16.5458 10.6997 16.5084 10.7448 16.3731 10.7609C16.3423 10.7642 16.1101 10.6917 16.0834 10.6901C15.9685 10.6839 16.4107 10.8072 16.309 10.8035C16.2882 10.8029 16.0878 10.7467 16.0655 10.7416C15.7154 10.6624 16.2035 10.8047 16.2134 10.811C16.3501 10.8933 15.8302 10.784 15.8917 10.8447C15.8996 10.8521 16.157 10.9088 16.1636 10.9255C16.2091 11.0368 16.1131 11.1162 15.8851 11.1537C15.8501 11.1596 15.6617 11.0985 15.6379 11.0931C15.266 11.0096 15.7566 11.1505 15.7739 11.1601C15.8978 11.2325 15.4751 11.1565 16.0558 11.338C15.8106 11.439 16.0991 11.6816 15.5319 11.6954C15.5252 11.6957 15.2833 11.6275 15.2712 11.6284C15.1222 11.6391 15.5021 11.7307 15.9554 11.885C16.0693 11.9237 15.5056 11.799 15.4641 11.7902C15.3115 11.7577 14.9523 11.6534 14.9225 11.6482C14.6879 11.6085 15.8837 11.9236 15.8764 11.9525C15.8742 11.9528 15.6553 11.8904 15.6327 11.887C15.5621 11.8762 15.6475 11.9069 15.5698 11.8941C15.3902 11.8642 14.808 11.7153 15.139 11.8311C15.182 11.846 15.8612 12.0218 15.8223 12.0389C15.8062 12.0456 15.8058 12.094 15.7584 12.095C15.7112 12.096 15.4951 12.029 15.4854 12.0274C15.1875 11.9846 15.0712 11.9397 14.639 11.8428C14.2085 11.7463 15.2258 12.0125 15.3373 12.0497C15.4485 12.0868 15.2036 12.0484 15.1191 12.0324C15.0346 12.0165 14.8978 11.9718 14.8494 11.9648C14.5334 11.9193 15.3495 12.1152 15.5076 12.1701C15.8819 12.3001 15.1226 12.1211 15.0419 12.1273C15.0201 12.1289 15.1932 12.169 15.2076 12.1795C15.2623 12.2204 15.0232 12.1726 15.2313 12.2581C15.2653 12.272 15.7122 12.4155 15.3759 12.3415C15.3274 12.3307 15.1412 12.2748 15.0963 12.2741C15.029 12.2729 14.9805 12.2902 15.0387 12.3238C15.0818 12.3486 15.395 12.4169 15.2948 12.4069C15.25 12.4024 15.0724 12.3412 15.0034 12.3368C14.9344 12.3324 14.9335 12.3677 14.9364 12.3821C14.9394 12.3964 15.1759 12.4521 15.1915 12.4573C15.2804 12.4876 15.3871 12.542 15.3863 12.5441C15.3861 12.6598 14.9639 12.6539 15.0668 12.794C15.0745 12.8049 15.3235 12.8654 15.3272 12.8678C15.4234 12.9237 14.7713 12.7259 14.5458 12.687C15.0488 12.818 14.9548 12.8054 15.0045 12.84C15.0289 12.8568 15.2248 12.9034 15.2444 12.9096C15.536 13.0026 15.1519 12.9108 15.0731 12.8925C14.7835 12.8254 15.12 12.9261 14.9264 12.8813C14.7343 12.837 14.4558 12.7469 14.4544 12.767C14.6327 12.8203 15.1063 12.9314 15.1786 12.9662C15.452 13.0977 15.0562 13.1015 15.0062 13.1352C14.9562 13.1689 14.9856 13.1919 14.9138 13.2002C14.784 13.2151 15.1371 13.2911 15.289 13.3623C15.4408 13.4336 14.5869 13.1909 14.4014 13.1459C14.2161 13.1008 14.4046 13.1558 14.3019 13.1339C14.1993 13.1119 14.0769 13.0676 14.0357 13.0693C13.9945 13.071 14.3137 13.1908 14.5054 13.2464C14.9115 13.3642 15.344 13.4639 15.185 13.4551C15.1756 13.4545 14.9517 13.3885 14.927 13.3893C14.7388 13.3978 14.7129 13.4519 14.5447 13.4657C14.5212 13.4675 14.2721 13.3939 14.2556 13.3942C14.083 13.397 14.5104 13.4935 14.9736 13.6438C14.3498 13.4714 13.9635 13.3833 13.9506 13.4169C13.9426 13.4371 14.2166 13.5063 14.4055 13.5711C14.4625 13.5906 14.271 13.5553 14.3988 13.5923C14.8163 13.713 15.29 13.8245 15.0933 13.8103C15.084 13.8095 14.8555 13.7432 14.8402 13.7449C14.7397 13.7556 15.1778 13.8769 15.2209 13.9289C15.2547 13.9697 14.9728 13.951 14.9203 13.9731C14.2174 13.7849 14.3699 13.8598 14.8512 14.002C14.8255 14.0186 14.8466 14.0495 14.774 14.0528C14.7492 14.054 14.5469 13.995 14.5247 13.99C14.1759 13.9121 14.6449 14.0474 14.6622 14.0571C14.8282 14.1562 14.4597 14.1027 14.7959 14.2447C14.8081 14.2498 15.2957 14.3829 14.9356 14.3009C14.9108 14.2951 14.6929 14.2197 14.6696 14.2382C14.6462 14.2566 14.3729 14.2301 14.5906 14.3224C14.6431 14.3447 15.0343 14.47 14.7204 14.4031C14.6777 14.3939 14.5383 14.3543 14.4595 14.3365C14.2086 14.2801 14.7008 14.417 14.2784 14.3167C13.856 14.2163 13.5355 14.1564 13.8163 14.2658C13.8244 14.2691 14.2136 14.381 14.2047 14.3895C14.1902 14.4029 14.1026 14.4042 14.1006 14.4217C14.0998 14.4302 14.3442 14.4898 14.3482 14.4924C14.4699 14.5831 14.243 14.564 14.1334 14.5972C14.1129 14.6031 14.436 14.7222 14.1686 14.673C13.8758 14.6192 12.6893 14.2778 12.9595 14.4058C13.0676 14.4571 14.5737 14.8873 13.7796 14.716C13.9543 14.8412 13.535 14.802 13.7928 14.9495C13.8042 14.9561 14.2237 15.0792 14.2159 15.0854C14.2034 15.0945 14.0044 15.0482 13.9892 15.0529C13.9205 15.0716 14.081 15.1482 14.0458 15.1745C14.0329 15.1846 13.83 15.1258 13.8146 15.1378C13.7993 15.1499 14.0654 15.2316 13.9301 15.2174C13.8271 15.2065 13.2737 15.0754 13.2042 15.0788C13.7458 15.2241 13.7309 15.2351 13.8673 15.2983C13.8937 15.3105 14.0837 15.3556 14.106 15.364C14.2007 15.3991 14.0421 15.366 14.1456 15.403C14.1704 15.4119 14.3554 15.4614 14.3862 15.4714C14.6547 15.559 14.232 15.4724 14.1584 15.4573C13.8789 15.4 14.1175 15.4717 14.0058 15.4552C13.8942 15.4386 13.7636 15.384 13.694 15.3809C13.55 15.3745 13.5697 15.4208 13.5531 15.4489C13.5476 15.4604 13.7968 15.518 13.8018 15.5211C13.8578 15.5629 13.5883 15.5181 14.0766 15.6632C12.7998 15.3413 14.196 15.7112 13.9317 15.679C13.9104 15.6763 13.3078 15.5195 13.2224 15.4851C13.1371 15.4508 13.3295 15.4845 13.1958 15.4328C13.1644 15.4206 12.6061 15.25 12.5727 15.2381C12.3116 15.1452 13.2115 15.3818 13.2612 15.3938C13.7975 15.5229 13.1968 15.3361 13.1566 15.3183C12.9723 15.2371 13.1055 15.2453 12.975 15.1837C12.8906 15.1436 12.3022 14.985 12.3236 14.9769C12.3946 14.95 13.2201 15.1542 12.5185 14.9239C12.3689 14.8747 11.723 14.7117 12.2374 14.8157C12.2698 14.8222 12.7389 14.9227 12.4496 14.8313C12.4131 14.8198 12.2255 14.7698 12.2104 14.7634C12.1124 14.7215 12.2644 14.7515 12.1972 14.7164C12.1299 14.6812 12.0283 14.6334 12.0968 14.6321C12.1378 14.6311 12.4911 14.7102 12.5781 14.7277C12.8285 14.7785 12.4287 14.6547 12.7296 14.725C13.0321 14.7957 13.4828 14.9354 13.6831 14.9626C13.196 14.8317 12.6964 14.6963 12.2067 14.5641C12.2381 14.515 12.4098 14.5043 12.4026 14.4447C12.4012 14.4372 12.1374 14.3742 12.1292 14.3643C12.0956 14.323 12.2894 14.3465 12.2234 14.2953C12.1713 14.2555 11.901 14.1549 11.8378 14.111C12.3996 14.2442 12.2203 14.1561 12.2786 14.1424C12.2987 14.1375 12.4475 14.1779 12.4979 14.184C12.6845 14.2063 12.1885 14.0869 12.1128 14.0592C11.7898 13.9407 12.906 14.2356 12.8879 14.1926C12.8873 14.1905 12.2989 14.0089 12.2627 13.9958C12.0267 13.9113 12.4705 14.0477 12.5178 14.0468C12.6043 14.0451 12.7505 14.067 12.5836 13.9935C12.5341 13.9718 12.1686 13.8541 12.4593 13.9152C12.4974 13.9232 12.6936 13.9767 12.7055 13.9782C12.9052 14 12.2879 13.8346 12.0833 13.762C11.8786 13.6895 12.3118 13.7772 12.4361 13.8047C12.7576 13.8757 12.5691 13.8515 12.6001 13.8606C12.9689 13.9683 12.91 13.9324 12.9453 13.9263C13.5513 14.0857 13.5203 14.0558 12.9793 13.9194C12.9202 13.9045 12.9737 13.9308 12.9453 13.9263C12.3546 13.7552 12.2844 13.7128 12.8461 13.8363C13.1093 13.8942 13.4098 13.9859 13.3081 13.9215C13.2622 13.8923 12.8437 13.7873 12.7338 13.743C12.4829 13.6419 12.8829 13.7042 12.8304 13.655C12.8113 13.6371 12.58 13.5879 12.5591 13.5736C12.503 13.5354 12.6793 13.562 12.5974 13.5169C12.5896 13.5127 12.3495 13.4538 12.3482 13.4463C12.3342 13.3876 12.4991 13.3838 12.5176 13.3315C12.5264 13.3061 12.407 13.2248 12.4406 13.2051C12.4975 13.1705 12.8601 13.2061 12.7863 13.1439C12.7391 13.1037 12.4987 13.0456 12.3388 12.9911C12.029 12.8856 12.6043 12.9985 12.6932 13.0167C12.6962 13.0173 12.7465 13.0546 12.8724 13.0755C13.1298 13.1367 12.6943 13.0173 12.6932 13.0167C12.7507 13.0285 12.8167 12.9985 12.7734 12.9775C12.7497 12.966 12.5226 12.9083 12.5146 12.9035C12.3278 12.7901 12.2862 12.7152 12.4081 12.6831C12.413 12.6833 12.6657 12.7524 12.674 12.7519C12.7959 12.7471 12.4921 12.6421 12.3159 12.5643C12.1397 12.4865 12.2074 12.4801 12.6466 12.579C12.5977 12.5427 12.7981 12.5628 12.9195 12.5759C13.0409 12.5891 12.5487 12.4552 12.5394 12.451C12.2406 12.3186 12.5303 12.3654 12.5878 12.3261C12.616 12.3076 12.5574 12.2404 12.5105 12.1998C12.4726 12.1674 12.5914 12.1857 12.5227 12.1469C12.5135 12.1417 12.2933 12.0858 12.2851 12.0827C12.0282 11.9913 12.562 12.1447 12.659 12.1658C13.0117 12.2428 13.1999 12.2824 13.0433 12.2113C13.0074 12.195 12.2398 11.9706 12.1977 11.9471C12.1444 11.9168 12.4198 11.9963 12.3569 11.9628C12.3517 11.96 12.1808 11.9147 12.1909 11.9071C12.2356 11.8709 12.3481 11.8486 12.3434 11.7974C12.3434 11.7906 12.0702 11.7265 12.0658 11.7155C12.0452 11.6637 12.0678 11.6191 12.2059 11.6109C12.2407 11.6091 12.4287 11.6662 12.4856 11.679C12.8301 11.7561 12.3401 11.6044 12.3315 11.5987C12.1141 11.4583 12.578 11.5189 12.3855 11.3835C12.3741 11.3759 11.852 11.2015 12.3112 11.3082C12.3418 11.3153 12.8115 11.425 12.4964 11.3272C12.4767 11.3211 12.2345 11.2662 12.2631 11.257C12.2917 11.2477 12.1383 11.1796 12.4076 11.2282C12.4924 11.2434 12.9615 11.3511 12.5965 11.2319C12.571 11.2236 11.7418 10.9687 12.3227 11.1115C12.4184 11.135 13.0294 11.3 12.7224 11.192C12.6628 11.1711 12.5242 11.1432 12.4423 11.1082C12.316 11.0543 12.4865 11.073 12.2202 10.9772C12.1731 10.9603 11.7626 10.8324 12.0813 10.9026C12.1312 10.9136 12.3343 10.9721 12.3591 10.9709C12.4779 10.9655 12.351 10.8928 12.5017 10.8953C12.5546 10.8961 12.883 10.9904 12.9749 11.001C13.0668 11.0116 13.1588 11.0081 13.0116 10.9543C12.8644 10.9005 12.3344 10.7751 12.2977 10.7435C12.1385 10.6061 12.4705 10.6007 12.5392 10.5243C12.5495 10.513 12.3583 10.4736 12.3599 10.4534C12.3649 10.3784 12.2212 10.2083 12.6377 10.2531C12.9712 10.289 13.1985 10.4163 13.339 10.4132C13.406 10.4116 12.7997 10.2287 12.7817 10.2192C12.5976 10.1239 12.8765 10.1662 12.8037 10.1053C12.7886 10.0927 12.5386 10.0344 12.5285 10.0244C12.4917 9.98968 12.6089 9.99472 12.5946 9.96707C12.5876 9.95452 12.3978 9.90588 12.4148 9.90059C12.4535 9.88736 12.5382 9.88915 12.7214 9.91504C12.7381 9.9174 12.9701 9.99337 12.9832 9.97945C13.0037 9.95674 13.1874 9.97075 13.0147 9.89228C12.9628 9.8688 12.5302 9.75306 12.8341 9.81344C12.8976 9.82603 13.4158 9.96974 12.9729 9.82754C12.8993 9.80387 12.3039 9.60462 12.6991 9.69016C12.8031 9.71266 13.2316 9.81355 13.1677 9.78493C13.1574 9.78063 12.9234 9.72452 12.9032 9.70952C12.8357 9.65775 12.8693 9.63131 12.8052 9.57949C12.7876 9.56553 12.5437 9.51429 12.5251 9.49553C12.4738 9.44385 12.5468 9.4159 12.6314 9.40129C12.663 9.39602 12.8598 9.45799 12.8818 9.46284C13.2384 9.54191 12.7648 9.40614 12.7384 9.39377C12.5804 9.31857 12.8103 9.35467 12.7587 9.31043C12.7451 9.29838 12.5166 9.24343 12.4968 9.23647C12.3034 9.16753 12.7077 9.28829 12.7554 9.29001C12.8903 9.29517 12.8806 9.25824 12.8594 9.22142C12.8512 9.20781 12.5849 9.14964 12.5806 9.13824C12.5504 9.0694 12.5913 9.01712 12.7511 9.00043C12.7817 8.99741 12.9826 9.05801 13.0295 9.06818C13.3573 9.13954 12.9214 8.99981 12.8807 8.98354C12.6947 8.90935 12.8763 8.94821 12.8483 8.91901C12.7082 8.77552 12.8595 8.68483 12.9577 8.61085C13.0846 8.51413 13.3026 8.47096 13.2835 8.34139C13.2826 8.33322 13.011 8.26879 13.0067 8.26082C12.9637 8.16128 13.0906 8.10843 13.0347 8.00529C13.0306 7.99696 12.7725 7.93856 12.7573 7.92288C12.7243 7.89026 12.7457 7.86578 12.8333 7.86503C12.8756 7.86454 13.0909 7.93774 13.129 7.93605C13.218 7.93225 13.2436 7.90953 13.2097 7.87218C13.1947 7.85614 12.9288 7.80341 12.9297 7.78799C12.9303 7.68152 12.9114 7.57175 13.2766 7.5614C13.3017 7.5607 13.8345 7.6963 13.7366 7.65447C13.5894 7.61405 13.416 7.56787 13.2586 7.52537C13.2123 7.35781 13.4347 7.26347 13.502 7.12573C13.5047 7.1199 13.2205 7.05544 13.2244 7.04378C13.2469 6.97623 13.1867 6.88876 13.4852 6.89313C13.5144 6.89346 14.0086 7.02907 13.9392 6.98857C13.9265 6.9813 13.8687 6.93276 13.7633 6.8961C13.7474 6.89069 13.5148 6.83471 13.5107 6.82294C13.491 6.75567 13.56 6.70904 13.7166 6.68888C13.7423 6.68575 13.9858 6.76131 14.0063 6.75965C14.1495 6.74734 13.9761 6.64617 14.2115 6.66071C14.37 6.67068 14.7925 6.79529 15.2155 6.89094C15.2752 6.90443 15.2896 6.88826 15.5335 6.95226C16.1468 7.11316 16.8153 7.30111 17.4693 7.47154C17.6102 7.50827 17.4653 7.44286 17.8013 7.54831C17.8238 7.55541 17.9318 7.60362 18.0459 7.63884C18.1248 7.66321 18.3741 7.72368 18.4744 7.75724C18.5747 7.79077 18.3651 7.74235 18.4822 7.78484C18.6008 7.82773 18.8839 7.89827 18.9117 7.92817ZM13.4623 12.6342C13.7034 12.6807 12.8371 12.4471 13.0397 12.5203C13.0505 12.5242 13.4504 12.632 13.4623 12.6342ZM13.0637 14.679C13.4519 14.7592 12.8935 14.5945 12.5941 14.531C12.295 14.4676 12.946 14.6547 13.0637 14.679ZM13.2829 14.9784C13.5911 15.0335 12.3628 14.7016 12.6041 14.7951C12.6177 14.8004 13.265 14.9753 13.2829 14.9784ZM15.315 6.99705C15.3265 6.99989 15.3413 6.98946 15.33 6.9861C15.0566 6.90552 15.0272 6.92643 15.315 6.99705ZM13.5273 15.2828C13.6957 15.3192 13.5098 15.2452 13.3004 15.1999C13.1319 15.1635 13.3178 15.2375 13.5273 15.2828ZM14.6185 12.0151C14.6315 12.0183 14.6457 12.0118 14.5726 11.9925C14.3372 11.9304 14.4 11.9615 14.6185 12.0151ZM13.4402 15.6661C13.5014 15.6223 14.5261 15.8592 14.3952 15.8897C14.3715 15.8952 14.0777 15.7795 13.9824 15.7691C13.8087 15.7504 14.4418 15.9375 14.0931 15.8727C14.0293 15.8608 13.4345 15.668 13.4388 15.6656C13.4393 15.6657 13.4398 15.6659 13.4402 15.6661ZM14.5062 12.9023C14.5177 12.9051 14.5322 12.8946 14.5209 12.8913C14.2476 12.8107 14.2183 12.8316 14.5062 12.9023ZM15.3043 11.5965C15.3289 11.6023 15.36 11.5775 15.3378 11.5705C14.892 11.4343 14.8278 11.4842 15.3043 11.5965ZM14.9014 13.9687C15.1744 14.057 15.2024 14.0831 14.8516 14.002C14.8739 13.9925 14.8805 13.9787 14.9014 13.9687Z" fill="black"/>
<path d="M30.6387 14.6384C30.68 14.7157 30.5817 14.7104 30.4651 14.677C30.4288 14.6667 30.3021 14.5704 30.2712 14.5592C30.211 14.5374 30.266 14.5949 30.1961 14.5662C30.1724 14.5563 29.9699 14.4062 29.9497 14.3991C29.8405 14.361 29.8759 14.4222 29.8138 14.4176C29.5073 14.3948 29.3413 14.467 29.1562 14.5314C29.0953 14.5528 28.8715 14.4739 28.9223 14.5755C28.9284 14.5875 29.1117 14.7112 29.126 14.7227C29.3437 14.8981 28.9816 14.637 28.926 14.6131C28.7061 14.5188 28.6583 14.5517 28.7012 14.6391C28.72 14.6767 29.0913 14.9121 28.8778 14.7873C28.8634 14.7789 28.6739 14.6401 28.6503 14.6302C28.597 14.6081 28.6178 14.6515 28.5971 14.6487C28.5561 14.6427 28.5562 14.6466 28.544 14.6595C28.5255 14.6759 28.4135 14.6324 28.4423 14.684C28.449 14.6954 28.6504 14.8275 28.6789 14.8582C28.7074 14.8888 28.6773 14.8962 28.6263 14.87C28.5753 14.8439 28.4223 14.7327 28.3859 14.709C28.0796 14.5084 28.4794 14.8211 28.4877 14.8312C28.6265 15.0053 28.3589 14.884 28.3257 14.933C28.3009 14.9705 28.3514 15.0646 28.3162 15.0921C28.2735 15.1244 28.1419 15.085 28.1318 15.1384C28.1306 15.1438 28.3659 15.3011 28.3648 15.3081C28.3529 15.3825 28.289 15.42 28.0938 15.3657C28.074 15.3601 27.8755 15.2105 27.8436 15.1964C27.6525 15.1132 27.2131 14.8856 28.0853 15.5261C28.0346 15.5249 27.9793 15.5277 27.7863 15.4232C27.662 15.356 27.4493 15.1879 27.5325 15.2704C27.551 15.2889 27.7485 15.42 27.7616 15.4374C27.8165 15.5103 27.7356 15.4915 27.8199 15.5846C27.8375 15.6039 28.0124 15.7244 28.0428 15.7477C28.2888 15.9364 27.8564 15.6613 27.8231 15.644C27.5743 15.5156 27.648 15.6006 27.6225 15.6253C27.6164 15.631 27.8557 15.7867 27.8583 15.7981C27.8686 15.8546 27.8245 15.8749 27.6981 15.8347C27.6694 15.8254 27.4749 15.6794 27.451 15.6678C27.3481 15.6184 27.7218 15.885 27.6303 15.8427C27.6115 15.8341 27.4423 15.7131 27.4232 15.7005C27.1232 15.5036 27.5342 15.8027 27.5418 15.8114C27.6475 15.9278 27.2 15.6418 27.2423 15.7125C27.2478 15.7212 27.4686 15.8648 27.4709 15.8801C27.4872 15.9836 27.3822 16.0075 27.1669 15.9479C27.1337 15.9388 26.9765 15.8186 26.9561 15.8052C26.6372 15.5966 27.0509 15.8955 27.0645 15.9097C27.1607 16.0135 26.7941 15.7909 27.2804 16.1561C27.0351 16.1387 27.2426 16.4375 26.7245 16.228C26.7184 16.2256 26.5142 16.0792 26.5029 16.0752C26.3653 16.0256 26.6896 16.2436 27.0665 16.5384C27.1611 16.6124 26.6774 16.2975 26.6418 16.2747C26.5105 16.1904 26.2079 15.9707 26.182 15.9551C25.9779 15.8334 26.9927 16.5403 26.9796 16.5597C26.9775 16.5591 26.7927 16.4261 26.7731 16.4147C26.7114 16.3789 26.782 16.4358 26.7144 16.3957C26.558 16.3029 26.0629 15.9623 26.3375 16.18C26.3731 16.2082 26.9501 16.6071 26.911 16.6053C26.8949 16.6042 26.8836 16.6413 26.8405 16.6237C26.7974 16.6061 26.6162 16.4706 26.6078 16.4656C26.347 16.317 26.2515 16.2373 25.881 15.9949C25.5118 15.7535 26.3755 16.3534 26.4684 16.4253C26.561 16.4971 26.3472 16.3724 26.2741 16.3273C26.201 16.2822 26.0869 16.1947 26.0446 16.1705C25.7678 16.0129 26.4647 16.4805 26.5959 16.5842C26.9065 16.8296 26.2574 16.397 26.1827 16.3704C26.1626 16.3632 26.3107 16.4613 26.3214 16.4749C26.3619 16.5277 26.1557 16.398 26.3254 16.5447C26.353 16.5686 26.7266 16.8525 26.4378 16.665C26.3962 16.6379 26.2398 16.5225 26.1992 16.5046C26.1384 16.4776 26.0904 16.472 26.1358 16.5205C26.1693 16.5564 26.4383 16.7305 26.3495 16.6839C26.3099 16.6631 26.1624 16.547 26.1008 16.5169C26.0392 16.4867 26.0304 16.5135 26.0298 16.5257C26.0293 16.5379 26.2315 16.6726 26.2444 16.6826C26.3183 16.7405 26.403 16.8238 26.4017 16.8251C26.3756 16.9141 25.9937 16.7458 26.0556 16.8936C26.0602 16.905 26.2726 17.0482 26.2755 17.0515C26.3502 17.1319 25.8027 16.7265 25.6067 16.6089C26.0339 16.9051 25.9514 16.8589 25.9888 16.9048C26.0071 16.9272 26.1744 17.0392 26.1909 17.0516C26.4347 17.2364 26.1066 17.0165 26.0393 16.9719C25.7915 16.8078 26.0743 17.016 25.9086 16.9063C25.7441 16.7976 25.5116 16.6202 25.5058 16.635C25.6557 16.7453 26.0606 17.0147 26.1184 17.0696C26.3371 17.277 25.9769 17.1262 25.9239 17.1328C25.871 17.1394 25.8925 17.1685 25.8255 17.147C25.7043 17.1081 26.0078 17.3037 26.1297 17.4175C26.2515 17.5313 25.5309 17.013 25.3726 16.9063C25.2145 16.7997 25.3733 16.9152 25.285 16.8585C25.1968 16.8017 25.0956 16.72 25.0578 16.7053C25.0201 16.6907 25.2829 16.9069 25.4444 17.0241C25.7866 17.2724 26.1568 17.5171 26.0145 17.4486C26.0061 17.4445 25.8176 17.3067 25.795 17.2978C25.6223 17.2313 25.5866 17.2629 25.4308 17.2083C25.4091 17.2005 25.1996 17.0471 25.1845 17.041C25.0272 16.9762 25.3934 17.2163 25.7802 17.5119C25.2526 17.137 24.9217 16.9192 24.9025 16.9401C24.8907 16.9525 25.1239 17.1122 25.2808 17.2354C25.3282 17.2726 25.1623 17.1711 25.2699 17.2491C25.6218 17.5041 26.0268 17.7739 25.8515 17.6866C25.8432 17.6823 25.6506 17.5426 25.6363 17.538C25.5427 17.5072 25.9132 17.7707 25.9406 17.8274C25.9622 17.872 25.7105 17.7482 25.6578 17.7448C25.062 17.3271 25.1836 17.4439 25.5886 17.7402C25.5616 17.743 25.5738 17.7751 25.5071 17.7494C25.4843 17.7407 25.3139 17.6167 25.2949 17.6043C24.9958 17.4089 25.3912 17.6952 25.4046 17.7093C25.5331 17.8501 25.2106 17.6658 25.4839 17.9057C25.4938 17.9144 25.9065 18.2061 25.5981 18.0032C25.5769 17.9892 25.396 17.8465 25.3707 17.8516C25.3454 17.8568 25.1031 17.7303 25.2801 17.8859C25.3227 17.9234 25.6497 18.1717 25.3798 17.9984C25.3431 17.9748 25.2254 17.8901 25.1579 17.8459C24.9428 17.705 25.3589 18.0015 24.9979 17.7603C24.637 17.519 24.3596 17.3485 24.5899 17.5417C24.5966 17.5474 24.9247 17.7847 24.9148 17.7878C24.8985 17.7925 24.8187 17.7594 24.813 17.7722C24.8104 17.7784 25.0188 17.9191 25.0219 17.9227C25.112 18.0398 24.9103 17.937 24.8034 17.92C24.7834 17.9167 25.05 18.1337 24.8182 17.9921C24.5645 17.837 23.5642 17.1136 23.7808 17.317C23.8673 17.3985 25.1378 18.3143 24.4555 17.8743C24.586 18.0384 24.2141 17.8455 24.415 18.0592C24.4239 18.0687 24.7771 18.3263 24.7686 18.3281C24.7552 18.3302 24.5849 18.2173 24.5701 18.2151C24.5035 18.2028 24.632 18.3241 24.5942 18.3307C24.5802 18.3335 24.4092 18.2094 24.3925 18.2127C24.3759 18.2161 24.5991 18.3823 24.4795 18.3188C24.3885 18.2704 23.9155 17.9547 23.8517 17.9303C24.3107 18.2524 24.2947 18.2552 24.4043 18.3567C24.4256 18.3764 24.5879 18.4849 24.6062 18.4999C24.6843 18.5638 24.5478 18.4767 24.6334 18.5454C24.654 18.5619 24.8108 18.6718 24.8365 18.6915C25.0606 18.8631 24.6963 18.6324 24.6328 18.5922C24.392 18.4396 24.5925 18.5874 24.4949 18.5313C24.3972 18.4752 24.291 18.3825 24.2285 18.3531C24.0992 18.2923 24.1066 18.3356 24.0853 18.3507C24.0777 18.3575 24.291 18.4986 24.2948 18.5029C24.3362 18.5568 24.1017 18.4177 24.5123 18.719C23.4256 17.9755 24.6099 18.8023 24.3773 18.675C24.3585 18.6646 23.8468 18.31 23.777 18.2503C23.7072 18.1907 23.8743 18.2914 23.7646 18.1997C23.7388 18.1782 23.2703 17.83 23.2427 17.8079C23.0266 17.635 23.7902 18.1665 23.8326 18.195C24.2905 18.5026 23.7872 18.1256 23.7547 18.0963C23.6056 17.9622 23.7247 18.0203 23.62 17.9221C23.5525 17.8585 23.0539 17.508 23.0752 17.5101C23.1457 17.5169 23.8492 17.9945 23.2641 17.5449C23.1393 17.449 22.5896 17.0727 23.0331 17.3524C23.0611 17.3701 23.4644 17.6295 23.2223 17.4468C23.1918 17.4238 23.0327 17.3125 23.0204 17.3017C22.9408 17.2314 23.0721 17.3135 23.0189 17.2603C22.9658 17.2071 22.8843 17.1309 22.9468 17.1565C22.9842 17.1717 23.2872 17.3696 23.3622 17.4169C23.5781 17.5532 23.243 17.3027 23.5003 17.4736C23.759 17.6455 24.1368 17.928 24.3125 18.0267C23.8998 17.7369 23.4766 17.4386 23.0618 17.1468C23.1014 17.1212 23.2596 17.1795 23.2665 17.1309C23.2669 17.1245 23.0416 16.9736 23.0363 16.9628C23.0151 16.918 23.1858 17.0112 23.1373 16.9462C23.099 16.8953 22.8762 16.713 22.8287 16.6546C23.3088 16.9753 23.1658 16.8378 23.2218 16.8499C23.2412 16.8539 23.3671 16.9428 23.4115 16.9671C23.5759 17.0566 23.1524 16.7722 23.09 16.7214C22.8234 16.5049 23.7703 17.1651 23.7636 17.1251C23.7635 17.1232 23.2702 16.7549 23.2403 16.7308C23.045 16.5741 23.4173 16.8514 23.4604 16.8691C23.5393 16.9014 23.6671 16.975 23.5321 16.8536C23.492 16.8177 23.1867 16.5851 23.4368 16.7451C23.4696 16.766 23.6357 16.8834 23.6462 16.8891C23.8226 16.9834 23.2994 16.6164 23.1299 16.4811C22.9604 16.3458 23.334 16.5816 23.4406 16.651C23.7165 16.8304 23.5508 16.7386 23.5769 16.7576C23.8875 16.9838 23.8421 16.9332 23.8755 16.9422C24.3898 17.3002 24.3684 17.2652 23.908 16.9501C23.8577 16.9157 23.9003 16.9567 23.8755 16.9422C23.3777 16.5812 23.3236 16.5213 23.8057 16.8344C24.0316 16.9812 24.2838 17.1684 24.2059 17.0793C24.1709 17.0391 23.8145 16.7957 23.7247 16.7189C23.5197 16.5438 23.8687 16.747 23.8321 16.6887C23.8188 16.6675 23.6199 16.5398 23.6042 16.5207C23.5618 16.4695 23.7159 16.5584 23.6516 16.4919C23.6456 16.4857 23.4408 16.3471 23.4413 16.3408C23.4417 16.2902 23.5923 16.3512 23.6208 16.3181C23.6346 16.302 23.5444 16.193 23.5794 16.1909C23.6388 16.1863 23.9599 16.3544 23.9069 16.2779C23.8731 16.2286 23.6679 16.0906 23.5351 15.9866C23.2775 15.7851 23.7744 16.0953 23.851 16.1439C23.8535 16.1455 23.8909 16.1937 24.0004 16.2586C24.2203 16.4057 23.8518 16.1447 23.851 16.1439C23.9005 16.1752 23.9672 16.1777 23.9326 16.1448C23.9137 16.1267 23.7205 15.9942 23.7142 15.9873C23.5702 15.8275 23.5492 15.7536 23.6671 15.7763C23.6715 15.7783 23.8854 15.9296 23.893 15.9325C24.0048 15.976 23.7525 15.7773 23.61 15.6489C23.4676 15.5206 23.5305 15.542 23.907 15.7886C23.8707 15.7417 24.0482 15.8349 24.1554 15.8922C24.2627 15.9495 23.8459 15.6553 23.8384 15.6484C23.5969 15.4305 23.8494 15.579 23.9104 15.571C23.9402 15.5678 23.902 15.4932 23.8686 15.4437C23.8414 15.4041 23.9452 15.4643 23.8915 15.4077C23.8844 15.4002 23.6971 15.2716 23.6903 15.2661C23.4776 15.096 23.9277 15.4213 24.011 15.4752C24.3139 15.6714 24.4759 15.7749 24.3497 15.6594C24.3208 15.6329 23.6744 15.1622 23.6414 15.1277C23.5998 15.0837 23.8319 15.2518 23.7824 15.2016C23.7783 15.1975 23.6334 15.0962 23.6443 15.0943C23.6929 15.0838 23.8 15.1102 23.8073 15.069C23.8088 15.0637 23.5752 14.9084 23.5737 14.8981C23.5666 14.8503 23.5972 14.8247 23.7243 14.872C23.7563 14.8841 23.9142 15.001 23.963 15.033C24.2584 15.2261 23.8476 14.9191 23.8411 14.9114C23.6753 14.7188 24.0828 14.9455 23.9385 14.7666C23.9298 14.7563 23.495 14.4193 23.8879 14.6798C23.9141 14.6971 24.3158 14.9639 24.0518 14.7663C24.0353 14.7539 23.8277 14.6176 23.8558 14.6216C23.8838 14.6256 23.7599 14.5136 23.9934 14.6555C24.067 14.7002 24.4686 14.9652 24.1641 14.7317C24.1428 14.7154 23.4474 14.1973 23.9426 14.5327C24.0241 14.5879 24.5417 14.9522 24.2873 14.7498C24.2379 14.7106 24.1183 14.6353 24.0518 14.5765C23.9493 14.4861 24.0999 14.5666 23.8797 14.3895C23.8407 14.3582 23.4968 14.1003 23.7703 14.2781C23.8132 14.306 23.9844 14.4299 24.0072 14.4386C24.1162 14.4805 24.0174 14.3753 24.1536 14.4357C24.2015 14.4568 24.4783 14.6569 24.5594 14.7008C24.6404 14.7446 24.7248 14.7776 24.6032 14.679C24.4816 14.5804 24.0287 14.2781 24.0025 14.2395C23.8889 14.072 24.1914 14.1967 24.271 14.1645C24.2828 14.1597 24.1182 14.0553 24.1241 14.0403C24.1455 13.9844 24.0533 13.7977 24.4213 13.9938C24.716 14.1509 24.8937 14.3372 25.0219 14.3894C25.0832 14.4141 24.5739 14.038 24.5596 14.0236C24.4139 13.8788 24.6575 14.0196 24.6052 13.9444C24.5943 13.9289 24.3805 13.787 24.3735 13.7753C24.3479 13.7343 24.4532 13.7837 24.4464 13.7568C24.4429 13.7444 24.2815 13.6333 24.2982 13.6359C24.3362 13.6407 24.4127 13.6749 24.5732 13.766C24.5878 13.7743 24.7813 13.9228 24.7963 13.9172C24.8201 13.9077 24.9837 13.9898 24.8446 13.8623C24.8027 13.824 24.436 13.567 24.6984 13.7315C24.7532 13.7658 25.1913 14.0776 24.8211 13.7962C24.7596 13.7494 24.2639 13.3648 24.6035 13.5841C24.6929 13.6418 25.0591 13.8858 25.0075 13.839C24.9992 13.8317 24.7994 13.6977 24.7843 13.6782C24.7348 13.6122 24.7712 13.6049 24.7246 13.5401C24.7118 13.5225 24.5019 13.3883 24.4893 13.3667C24.4543 13.307 24.5268 13.3138 24.6069 13.3354C24.6367 13.3436 24.8015 13.4677 24.8203 13.48C25.1263 13.6793 24.7269 13.3909 24.7057 13.3711C24.5792 13.2519 24.7797 13.3689 24.7428 13.3148C24.7332 13.3002 24.5382 13.1692 24.5217 13.1562C24.3617 13.028 24.7016 13.278 24.7445 13.2978C24.8657 13.3541 24.8652 13.3219 24.8542 13.2853C24.8499 13.2717 24.6212 13.1235 24.6199 13.1131C24.6079 13.0483 24.6568 13.0239 24.8056 13.0731C24.8341 13.0827 25.0028 13.2073 25.043 13.2333C25.3246 13.4155 24.9603 13.1387 24.927 13.1104C24.7749 12.9811 24.931 13.0815 24.9121 13.0481C24.8171 12.8832 24.9748 12.8721 25.0807 12.8533C25.2175 12.828 25.4251 12.8794 25.4369 12.7722C25.4379 12.7655 25.2059 12.6105 25.2038 12.6027C25.187 12.5093 25.3141 12.5179 25.2865 12.4168C25.2847 12.4087 25.0635 12.2636 25.0532 12.2456C25.0306 12.2077 25.0556 12.1971 25.1352 12.2306C25.1737 12.2466 25.3527 12.3866 25.3877 12.4C25.4694 12.4317 25.4977 12.4241 25.4753 12.3822C25.4653 12.364 25.2357 12.2202 25.24 12.2086C25.2645 12.1269 25.2719 12.035 25.6058 12.1688C25.6288 12.178 26.082 12.4892 26.0024 12.419C25.878 12.3307 25.7309 12.2279 25.5975 12.134C25.5932 11.987 25.8163 12.0007 25.9082 11.9207C25.9121 11.9173 25.6685 11.7573 25.6747 11.7499C25.7103 11.7066 25.6753 11.6158 25.9452 11.735C25.9717 11.7466 26.3898 12.0429 26.3359 11.9847C26.326 11.9742 26.2845 11.9144 26.1971 11.8453C26.1838 11.8349 25.9852 11.7015 25.9842 11.6909C25.9814 11.6315 26.0545 11.6223 26.2012 11.6676C26.2253 11.6751 26.4293 11.8278 26.4482 11.8345C26.581 11.8806 26.4463 11.7354 26.6568 11.838C26.7984 11.9072 27.1539 12.1671 27.5165 12.405C27.5676 12.4385 27.5843 12.4316 27.7913 12.5756C28.3119 12.9375 28.8765 13.3417 29.4319 13.7269C29.5515 13.8098 29.4348 13.7032 29.7161 13.9148C29.7349 13.929 29.8221 14.0081 29.9177 14.0795C29.9839 14.1289 30.1966 14.2722 30.2802 14.337C30.3636 14.4017 30.1843 14.2831 30.281 14.3613C30.3791 14.4403 30.6202 14.6046 30.6387 14.6384ZM24.635 16.1477C24.8435 16.2772 24.1095 15.761 24.277 15.896C24.286 15.9032 24.6248 16.1414 24.635 16.1477ZM23.8139 17.5678C24.1483 17.7803 23.6785 17.4367 23.4209 17.2716C23.1637 17.1068 23.7126 17.5035 23.8139 17.5678ZM23.9456 17.8836C24.2131 18.0456 23.1726 17.3133 23.3706 17.4789C23.3818 17.4883 23.9301 17.8742 23.9456 17.8836ZM27.5829 12.5253C27.5928 12.5319 27.6085 12.5297 27.599 12.5227C27.3689 12.3545 27.3375 12.3592 27.5829 12.5253ZM24.0991 18.2128C24.2438 18.3062 24.0917 18.1771 23.9118 18.0609C23.767 17.9675 23.9191 18.0966 24.0991 18.2128ZM25.8236 16.1197C25.8347 16.1272 25.849 16.1277 25.787 16.0844C25.5873 15.9453 25.6373 15.9936 25.8236 16.1197ZM23.934 18.4742C23.9994 18.4643 24.8764 19.0444 24.7507 19.0171C24.728 19.0121 24.4872 18.809 24.403 18.764C24.2496 18.6822 24.7822 19.072 24.4803 18.8868C24.425 18.8528 23.9284 18.4734 23.9329 18.4733C23.9333 18.4736 23.9336 18.4739 23.934 18.4742ZM25.5224 16.7594C25.5323 16.766 25.5477 16.7636 25.5382 16.7566C25.3082 16.5884 25.277 16.5932 25.5224 16.7594ZM26.5402 16.0635C26.5612 16.0775 26.595 16.0705 26.5764 16.0564C26.2023 15.7785 26.1328 15.792 26.5402 16.0635ZM25.6417 17.7341C25.8696 17.9081 25.8892 17.939 25.5889 17.7404C25.6113 17.7417 25.6204 17.7336 25.6417 17.7341Z" fill="black"/>
<path d="M5.58769 20.1363C5.74141 20.292 5.77186 20.567 5.75153 20.8024C5.74515 20.8752 5.5868 20.9107 5.57587 20.9639C5.55468 21.0678 5.65845 21.1083 5.62577 21.215C5.61424 21.2506 5.37043 21.3228 5.36362 21.3579C5.32837 21.5502 5.45279 21.6688 5.47192 21.839C5.56969 22.6856 5.82613 23.4448 6.09057 24.2215C6.17542 24.4727 6.12592 24.8744 6.3421 25.0675C6.36798 25.0908 6.55395 24.9696 6.57296 24.9665C6.86451 24.9203 6.45565 25.1022 6.43324 25.1859C6.34345 25.5138 6.46254 25.7721 6.65225 25.9335C6.73365 26.0021 7.06523 25.6968 6.90189 25.908C6.891 25.9225 6.67417 26.0163 6.66644 26.0532C6.6494 26.137 6.74583 26.2201 6.7541 26.2711C6.76926 26.3706 6.77858 26.3817 6.82128 26.4592C6.87934 26.5685 6.85417 26.7529 6.96641 26.8339C6.9909 26.8507 7.17723 26.6943 7.23455 26.7092C7.29265 26.7257 7.33684 26.8353 7.3095 26.8982C7.28217 26.9614 7.11335 27.0483 7.08036 27.0773C6.80194 27.3221 7.30144 27.1623 7.32076 27.1689C7.67124 27.318 7.57788 27.6945 7.74864 27.9317C7.87843 28.1108 8.0953 28.2403 8.21011 28.406C8.34943 28.6081 8.3818 28.8494 8.55479 29.0091C8.57297 29.0262 8.76419 28.8156 8.78636 28.8356C9.01842 29.0436 9.20596 29.2765 9.30534 29.6219C9.31546 29.657 9.11993 29.8155 9.12074 29.8621C9.12117 30.1388 9.08776 30.7413 9.8298 29.9441C9.90353 30.053 9.99901 30.1745 9.9736 30.42C9.95795 30.5783 9.74686 30.7632 9.88992 30.7191C9.92183 30.7092 10.0285 30.4958 10.0658 30.4954C10.2216 30.4932 10.3031 30.6333 10.4762 30.5914C10.5115 30.5823 10.6106 30.3943 10.6358 30.3646C10.8389 30.1241 10.6764 30.6189 10.6807 30.6634C10.7021 30.9897 10.8715 30.9523 11.0169 31.0283C11.0508 31.046 11.1312 30.7686 11.1673 30.776C11.2419 30.7925 11.3136 30.8184 11.3812 30.8557C11.468 30.9051 11.5561 30.983 11.6277 31.0907C11.6545 31.1316 11.535 31.3463 11.5439 31.3777C11.5873 31.5139 11.7611 31.0886 11.8064 31.2095C11.8166 31.2345 11.7391 31.4279 11.7347 31.4505C11.6683 31.8071 11.8729 31.3396 11.8881 31.3328C12.089 31.2378 12.0371 31.7768 12.22 31.7515C12.2417 31.7479 12.2716 31.4826 12.3277 31.4875C12.698 31.5177 13.0653 31.6792 13.39 31.9612C13.4415 32.0048 13.3603 32.19 13.359 32.2146C13.3433 32.6003 13.4853 32.1082 13.5067 32.0928C13.6793 31.9862 13.7439 32.4336 13.9554 31.854C14.5521 32.1756 15.2326 31.9255 15.8147 32.5379C15.8222 32.5451 15.7798 32.7933 15.795 32.8065C15.9789 32.9685 15.9835 32.576 16.1625 32.1141C16.2073 31.9982 16.2486 32.5819 16.254 32.6249C16.2712 32.7832 16.2011 33.152 16.2091 33.1831C16.2775 33.4278 16.381 32.1955 16.5006 32.2062C16.5042 32.2087 16.4674 32.4338 16.4754 32.4573C16.5005 32.531 16.5401 32.4438 16.564 32.5246C16.6187 32.7115 16.592 33.3125 16.7311 32.9734C16.7487 32.9293 16.7871 32.2286 16.8915 32.2705C16.9329 32.2879 17.1247 32.2909 17.1741 32.3401C17.2238 32.3893 17.1706 32.6121 17.1736 32.6221C17.2958 32.9308 17.2323 33.0504 17.2743 33.497C17.3176 33.942 17.3701 32.8916 17.4076 32.7765C17.4452 32.6618 17.5351 32.915 17.5562 33.0022C17.577 33.0895 17.5348 33.2308 17.5552 33.2807C17.6908 33.6071 17.6561 32.7641 17.717 32.6007C17.8592 32.2135 17.9059 32.9973 18.013 33.0797C18.0418 33.1019 18.027 32.9232 18.0544 32.9081C18.1625 32.8503 18.2133 33.0965 18.3434 32.8793C18.3649 32.844 18.4816 32.38 18.5287 32.7264C18.5354 32.7763 18.5018 32.9694 18.5448 33.0148C18.6091 33.083 18.728 33.1302 18.8025 33.0679C18.8574 33.0219 18.8083 32.6997 18.8712 32.8015C18.8993 32.8469 18.8376 33.0322 18.891 33.1019C18.9443 33.1717 19.0872 33.1681 19.1415 33.1631C19.1958 33.1581 19.1732 32.9144 19.1781 32.8982C19.2072 32.8053 19.3131 32.691 19.3222 32.6915C19.7792 32.6737 20.2 33.0881 20.6495 32.9518C20.6847 32.9414 20.6606 32.6853 20.666 32.6811C20.7857 32.5734 20.693 33.2547 20.7789 33.4823C20.7643 32.9626 20.8147 33.0565 20.8992 32.9989C20.94 32.9707 20.9161 32.7696 20.9197 32.749C20.9774 32.4429 21.0227 32.8373 21.0345 32.9179C21.0778 33.2146 21.1174 32.8631 21.1472 33.0613C21.1773 33.258 21.1173 33.5511 21.1999 33.5462C21.2204 33.3599 21.1532 32.8745 21.2139 32.7949C21.4412 32.4941 21.8813 32.865 22.0703 32.8979C22.2582 32.9313 22.3181 32.8944 22.4294 32.9572C22.6311 33.0704 22.5428 32.7131 22.6568 32.5426C22.7707 32.3719 22.7545 33.2612 22.7814 33.451C22.8083 33.6406 22.8178 33.4436 22.8449 33.5472C22.8719 33.6508 22.8311 33.7828 22.8846 33.8195C22.9385 33.8562 23.0603 33.5098 23.0667 33.3096C23.081 32.8854 22.9936 32.4461 23.1352 32.594C23.1434 32.6028 23.132 32.8373 23.1629 32.8591C23.4079 33.0247 23.6498 33.0195 23.8965 33.1598C23.9303 33.1794 23.9217 33.4405 23.9417 33.4549C24.1506 33.6049 24.0458 33.174 24.1117 32.6805C24.1418 33.3274 24.2354 33.7172 24.3865 33.7075C24.4769 33.7018 24.4356 33.4217 24.4744 33.218C24.4858 33.1567 24.5667 33.3439 24.5659 33.2104C24.5618 32.7742 24.4559 32.296 24.625 32.4738C24.6326 32.4823 24.6353 32.721 24.6597 32.7331C24.8176 32.8117 24.7861 32.358 24.937 32.2859C25.0296 32.2419 25.201 32.3824 25.3406 32.4597L25.1944 32.4937C25.2395 32.5068 25.2808 32.5155 25.3144 32.5145C25.55 33.203 25.6252 33.0003 25.5098 32.509C25.6053 32.497 25.6887 32.4371 25.7972 32.4716C25.8346 32.4833 25.887 32.6883 25.8985 32.7084C26.0774 33.0234 25.9489 32.5507 25.9609 32.5259C26.1003 32.2768 26.3986 32.5599 26.4624 32.1481C26.4647 32.1332 26.2941 31.6574 26.4785 31.9817C26.4912 32.0041 26.5099 32.2435 26.6077 32.2247C26.7041 32.2065 26.9772 32.3903 27.0167 32.122C27.0269 32.0571 26.9493 31.646 27.1309 31.9182C27.1557 31.9552 27.2012 32.0932 27.2436 32.163C27.3798 32.385 27.2075 31.9036 27.4175 32.2865C27.6268 32.6697 27.8499 32.9294 27.8627 32.5993C27.8635 32.5896 27.7369 32.2036 27.7798 32.1924C27.8486 32.1749 27.9709 32.2145 28.0379 32.1829C28.0694 32.1678 27.9496 31.9456 27.9534 31.939C28.1107 31.7179 28.3517 31.857 28.6206 31.8433C28.6696 31.8415 28.6497 31.4744 28.8413 31.6851C29.0533 31.9146 29.4737 33.0798 29.5592 32.7171C29.5958 32.5708 29.0416 31.1019 29.5307 31.7692C29.7331 31.4531 30.1735 31.7038 30.3375 31.31C30.3444 31.2927 30.201 30.8773 30.234 30.8685C30.2835 30.8561 30.3936 31.0302 30.4322 31.0272C30.5919 31.0209 30.6448 30.8045 30.788 30.7707C30.8423 30.7574 30.9093 30.9587 30.9736 30.9434C31.0373 30.9283 30.9677 30.6553 31.1015 30.7448C31.1133 30.7529 31.1274 30.7669 31.1434 30.7853C31.2744 30.9156 31.5382 31.2866 31.6454 31.2954C31.3827 30.7997 31.445 30.7802 31.464 30.5974C31.467 30.5623 31.349 30.4053 31.3451 30.3801C31.3253 30.275 31.439 30.395 31.4111 30.2832C31.4043 30.2564 31.302 30.0945 31.29 30.0638C31.1815 29.799 31.4917 30.1081 31.5523 30.1568C31.7712 30.3504 31.6492 30.1303 31.7562 30.1892C31.8663 30.2453 31.8905 30.4048 31.9828 30.4186C32.177 30.4446 32.2929 30.2985 32.3957 30.2056C32.4367 30.1671 32.2266 30.0163 32.2282 30.0066C32.2542 29.8874 32.5347 29.9798 32.1838 29.606C33.2409 30.3941 32.1279 29.4759 32.4202 29.529C32.4437 29.5334 32.9505 29.8957 32.9907 29.9935C33.0302 30.0917 32.8296 30.0313 32.8919 30.1785C32.9088 30.211 33.2797 30.6741 33.2936 30.7112C33.4135 30.9915 32.7198 30.3693 32.6798 30.3375C32.2382 30.003 32.6075 30.5223 32.6084 30.5813C32.6331 30.8334 32.4421 30.8252 32.4261 31.0186C32.4142 31.1445 32.7715 31.6381 32.6943 31.6716C32.4293 31.7842 31.9261 31.0946 32.1063 31.8428C32.1429 32.0025 32.5065 32.564 32.0962 32.1906C32.0681 32.1683 31.7388 31.8 31.8149 32.1005C31.8223 32.1307 31.8786 32.2465 31.8998 32.3028C31.8777 32.3097 31.8172 32.3453 31.7947 32.3507C31.7996 32.3654 31.8027 32.3759 31.8025 32.3796C31.7954 32.4969 31.7003 32.3693 31.6747 32.4611C31.6478 32.5534 31.6259 32.6839 31.5334 32.6533C31.4783 32.6349 31.2757 32.3296 31.2197 32.2579C31.0579 32.0513 31.172 32.4593 31.0078 32.1949C30.8415 31.9298 30.7146 31.4689 30.5343 31.3314C30.7433 31.7904 30.9536 32.2636 31.162 32.726C30.9529 32.8037 30.6785 32.753 30.4766 32.8725C30.4517 32.8878 30.594 33.1206 30.5701 33.1434C30.4694 33.2383 30.2834 33.112 30.1899 33.2404C30.1198 33.3399 30.1328 33.6503 30.0597 33.7635C29.7559 33.268 29.6854 33.5157 29.5527 33.5177C29.5061 33.5188 29.4453 33.3771 29.3967 33.3438C29.217 33.2207 29.4743 33.6642 29.4784 33.7503C29.4931 34.119 29.0141 33.0686 28.8813 33.1584C28.8738 33.1629 29.0278 33.7673 29.0294 33.8083C29.0459 34.0738 28.9301 33.618 28.8599 33.599C28.7313 33.5643 28.6093 33.4569 28.568 33.6704C28.5571 33.7331 28.6282 34.1196 28.4486 33.8734C28.4251 33.8411 28.3508 33.6517 28.3395 33.6435C28.1429 33.5107 28.3858 34.1017 28.3977 34.3311C28.4095 34.5605 28.1333 34.197 28.0632 34.0882C27.8811 33.8072 28.0543 33.94 28.0451 33.9089C27.9357 33.5385 27.8828 33.6318 27.8104 33.6261C27.566 33.049 27.4988 33.1168 27.7375 33.6221C27.7638 33.6772 27.7879 33.6044 27.8104 33.6261C27.9907 34.2165 27.9244 34.3283 27.6095 33.8352C27.4625 33.6039 27.3919 33.2943 27.2908 33.4577C27.2445 33.5316 27.4269 33.9235 27.4121 34.0556C27.3762 34.3578 27.0581 34.0488 26.9423 34.1601C26.9008 34.2003 27.0323 34.4032 27.0066 34.4383C26.9386 34.5323 26.7948 34.3966 26.7351 34.5153C26.7297 34.5263 26.8352 34.751 26.8077 34.7644C26.5992 34.8713 26.3541 34.7907 26.1263 34.8652C26.0968 34.8749 26.0642 34.8959 26.0297 34.9218C25.9536 34.9351 25.7384 35.01 25.6611 35.0075C25.5541 35.0581 25.4245 35.1422 25.3318 35.1325C25.1117 35.1115 24.8208 34.7799 24.6501 34.8836C24.54 34.95 24.5878 35.1939 24.5529 35.3663C24.4844 35.7005 24.2603 35.1323 24.2305 35.0438C24.2296 35.0409 24.3256 34.9744 24.2612 34.8524C24.2082 34.5914 24.2316 35.0426 24.2305 35.0438C24.2106 34.9869 24.0081 34.9466 23.9719 34.9967C23.9523 35.024 23.9819 35.2568 23.9713 35.2666C23.7159 35.4961 23.4507 35.5729 23.1709 35.4787C23.1659 35.4743 23.1585 35.2122 23.147 35.205C22.9848 35.0972 22.9012 35.4223 22.7787 35.6186C22.6572 35.8147 22.5504 35.7553 22.456 35.3088C22.3608 35.3692 22.212 35.1755 22.1293 35.0574C22.0459 34.9394 22.0504 35.4496 22.0435 35.4599C21.8317 35.7891 21.6934 35.5004 21.4646 35.4594C21.3554 35.439 21.1394 35.516 21.0222 35.5728C20.9292 35.6186 20.8721 35.4994 20.7864 35.5763C20.7748 35.5866 20.7876 35.8136 20.7841 35.8224C20.6883 36.0946 20.7328 35.5391 20.7127 35.44C20.6395 35.0796 20.5964 34.8876 20.4746 35.0571C20.4469 35.0959 20.3621 35.8952 20.3093 35.9417C20.2412 36.0007 20.2684 35.7143 20.1972 35.7832C20.1912 35.7888 20.1912 35.9657 20.1474 35.9575C19.9442 35.9221 19.7248 35.8161 19.5138 35.8294C19.485 35.8306 19.5162 36.1117 19.4742 36.118C19.2772 36.147 19.0619 36.1308 18.8751 35.9932C18.8292 35.9584 18.8653 35.7632 18.8571 35.7046C18.8071 35.3499 18.701 35.8589 18.6857 35.8681C18.3262 36.101 18.0812 35.6252 17.7136 35.8255C17.694 35.8374 17.5107 36.377 17.473 35.9025C17.4701 35.8709 17.4358 35.3857 17.356 35.7108C17.351 35.7311 17.3762 35.9815 17.3057 35.9515C17.2355 35.9216 17.1075 36.079 17.0285 35.7998C17.003 35.7118 16.9667 35.227 16.8446 35.6021C16.8373 35.6284 16.6231 36.4812 16.6195 35.8807C16.6191 35.7819 16.6796 35.1519 16.5424 35.4661C16.516 35.527 16.5426 35.6709 16.4793 35.754C16.3821 35.8821 16.2831 35.7032 16.1507 35.9741C16.1278 36.0221 16.0075 36.4423 15.9749 36.1116C15.9699 36.0598 16.009 35.8513 15.978 35.8245C15.832 35.6964 15.649 35.8196 15.5039 35.6566C15.4526 35.5993 15.5191 35.263 15.4707 35.1655C15.4226 35.0681 15.3148 34.967 15.2345 35.1146C15.154 35.2623 15.1576 35.8111 15.0581 35.8429C14.6271 35.9813 14.2561 35.6075 13.8557 35.4961C13.7959 35.4795 13.8167 35.6802 13.7244 35.6689C13.3878 35.6301 12.7681 35.6997 12.5546 35.229C12.3926 34.8548 12.7359 34.671 12.5906 34.5013C12.5234 34.4207 12.2877 35.016 12.2619 35.0305C12.0094 35.1799 11.9329 34.8723 11.724 34.9068C11.6808 34.9139 11.6537 35.172 11.6173 35.1752C11.4926 35.1884 11.4015 35.0446 11.2844 35.0327C11.232 35.028 11.1865 35.2188 11.1445 35.1908C11.0441 35.126 10.9697 35.0172 10.9157 34.8073C10.9112 34.7883 11.0504 34.5769 10.9724 34.5425C10.8454 34.4872 10.7474 34.2631 10.5301 34.3831C10.4663 34.4197 10.3076 34.8388 10.3174 34.512C10.3183 34.4431 10.5416 33.9533 10.2564 34.3409C10.2122 34.407 9.76665 34.9032 9.82474 34.4874C9.82834 34.4633 9.83651 34.4233 9.8463 34.3761C9.8828 34.2113 9.94138 33.9589 9.88012 33.9904C9.86859 33.9974 9.79858 34.2296 9.74597 34.2317C9.56202 34.2351 9.4128 34.1363 9.22229 34.1252C9.17084 34.1224 9.12266 34.3768 9.04851 34.3649C8.84316 34.3321 8.65061 34.1563 8.52011 33.9909C8.47213 33.9295 8.61876 33.7761 8.62531 33.754C8.73796 33.3975 8.44743 33.7977 8.40784 33.8075C8.1695 33.8652 8.17709 33.5966 8.01112 33.5611C7.96509 33.5503 7.86214 33.7637 7.8432 33.7763C7.65167 33.8949 7.94308 33.5821 7.92042 33.5111C7.85771 33.3107 7.70372 33.2254 7.55324 33.1514C7.49787 33.1245 7.3904 33.3839 7.34208 33.3568C7.05337 33.2004 6.8012 32.9602 6.67038 32.643C6.64596 32.5828 6.81294 32.4506 6.83582 32.4069C6.99948 32.104 6.60406 32.3614 6.55363 32.3738C6.32612 32.4336 6.4173 32.2642 6.31356 32.2118C5.79995 31.9556 5.4492 31.3753 5.21077 30.9553C4.89382 30.4034 4.78789 29.9112 4.4318 29.4739C4.40968 29.4462 4.19742 29.6308 4.17521 29.6086C3.89517 29.3093 3.77955 28.9199 3.51156 28.6303C3.48966 28.6058 3.28699 28.782 3.24403 28.7468C3.15364 28.6742 3.09773 28.5513 3.11754 28.4177C3.12666 28.3525 3.35755 28.298 3.36288 28.235C3.37626 28.0889 3.32642 27.9643 3.22968 27.8796C3.18805 27.8439 2.99116 28.0451 2.95521 27.9879C2.70364 27.5976 2.4415 27.2095 2.54332 26.6467C2.55001 26.6075 3.02517 26.3297 2.9009 26.3189C2.76307 26.3846 2.60379 26.4673 2.45793 26.5402C2.07752 25.9959 1.96059 25.3259 1.70983 24.7295C1.69896 24.7039 1.45651 24.8723 1.43406 24.8232C1.30808 24.5476 1.1055 24.3044 1.23975 23.9035C1.25266 23.8639 1.72483 23.6642 1.61684 23.6147C1.59738 23.6062 1.47847 23.5106 1.36245 23.5242C1.34517 23.5268 1.13799 23.6489 1.1132 23.6113C0.970622 23.386 0.914622 23.1287 0.942481 22.8324C0.947519 22.7847 1.19817 22.7214 1.2038 22.6865C1.24009 22.4358 0.97649 22.3183 1.10774 22.0418C1.19702 21.8577 1.62005 21.726 1.98891 21.4878C2.04095 21.4542 2.01692 21.375 2.24634 21.2702C2.8232 21.0068 3.47534 20.7652 4.08833 20.4801C4.22041 20.4188 4.03337 20.3821 4.3815 20.3004C4.40489 20.2951 4.54319 20.3201 4.66019 20.2898C4.74113 20.269 4.96653 20.1443 5.07417 20.1269C5.18169 20.1094 4.99667 20.2228 5.12827 20.214C5.26122 20.2043 5.52059 20.0694 5.58769 20.1363ZM21.7558 34.5285C21.6766 34.2854 21.6867 35.1827 21.7618 34.9661C21.7654 34.9546 21.7599 34.5404 21.7558 34.5285ZM30.3903 32.1405C30.1381 31.8218 30.3264 32.3763 30.5171 32.6244C30.7073 32.8723 30.4667 32.2371 30.3903 32.1405ZM31.1337 31.4791C30.9091 31.2374 31.4157 32.4047 31.41 32.1257C31.4097 32.1099 31.1466 31.4932 31.1337 31.4791ZM2.23197 21.7345C2.24248 21.7288 2.22973 21.6711 2.21836 21.6745C1.94503 21.7609 1.97083 21.8767 2.23197 21.7345ZM31.9096 30.7061C31.782 30.5859 31.8049 30.8091 31.9616 30.9619C32.0916 31.0828 32.0733 30.8528 31.9096 30.7061ZM17.9923 33.5172C17.9919 33.5038 17.951 33.4895 17.9477 33.565C17.9371 33.8082 17.9991 33.7428 17.9923 33.5172ZM33.0874 29.4071C32.9017 29.6065 31.9722 29.095 32.1995 28.9744C32.2418 28.9498 32.4253 29.2391 32.535 29.2459C32.7405 29.2496 32.2201 28.8385 32.5755 28.9349C32.6424 28.9499 33.102 29.3943 33.0884 29.4083C33.0881 29.4079 33.0877 29.4075 33.0874 29.4071ZM21.6876 33.4521C21.6859 33.4403 21.628 33.4304 21.627 33.4422C21.6022 33.7277 21.7192 33.7478 21.6876 33.4521ZM15.6378 32.7648C15.6374 32.7394 15.5089 32.7005 15.502 32.7231C15.3773 33.1775 15.6409 33.258 15.6378 32.7648ZM25.3228 32.5321C25.2873 32.2411 25.343 32.1858 25.5094 32.5087C25.4451 32.5112 25.387 32.5285 25.3228 32.5321Z" fill="black"/>
</svg>
